<svg version="1" xmlns="http://www.w3.org/2000/svg" width="474.667" height="474.667" viewBox="0 0 356.000000 356.000000"><path d="M0 178v123h356V55h-15.5c-14.8 0-15.5.1-15.5 2 0 1.1-.5 2-1.1 2-.6 0-.9-.9-.6-2 .5-1.8 0-2-4.3-2s-4.8.2-4.3 2c.3 1.1 0 2-.6 2s-1.1-.9-1.1-2c0-1.9-.7-2-10.5-2H292v40h-41V75h19.9l.3-10 .3-10H231v40h-41V75h-20v20h-42V75h21V55h-41v40H67V55H47v40H4.9l.3-9.8.3-9.7 10.3-.3 10.2-.3V55H0v123zM320 62.5c0 .8-.4 1.5-1 1.5-.5 0-1-.7-1-1.5s.5-1.5 1-1.5c.6 0 1 .7 1 1.5zm10 0c0 .8-.4 1.5-1 1.5-.5 0-1-.7-1-1.5s.5-1.5 1-1.5c.6 0 1 .7 1 1.5zm-15 4.9c0 .8-.4 1.8-1 2.1-.5.3-1-.3-1-1.4 0-1.2.5-2.1 1-2.1.6 0 1 .6 1 1.4zm10 .7c0 1.1-.4 1.7-1 1.4-.5-.3-1-1.3-1-2.1s.5-1.4 1-1.4c.6 0 1 .9 1 2.1zm-5 4.9c0 1.1-.4 2-1 2-.5 0-1-.9-1-2s.5-2 1-2c.6 0 1 .9 1 2zm10 .1c0 1.1-.4 1.7-1 1.4-.5-.3-1-1.3-1-2.1s.5-1.4 1-1.4c.6 0 1 .9 1 2.1zM315 78c0 1.1-.4 2-1 2-.5 0-1-.9-1-2s.5-2 1-2c.6 0 1 .9 1 2zm10 0c0 1.1-.4 2-1 2-.5 0-1-.9-1-2s.5-2 1-2c.6 0 1 .9 1 2zm-5 5c0 1.1-.4 2-1 2-.5 0-1-.9-1-2s.5-2 1-2c.6 0 1 .9 1 2zm10 0c0 1.1-.4 2-1 2-.5 0-1-.9-1-2s.5-2 1-2c.6 0 1 .9 1 2zm-15 5c0 1.1-.4 2-1 2-.5 0-1-.9-1-2s.5-2 1-2c.6 0 1 .9 1 2zm9.6 1.7c-1.1 1.1-1.9-.6-1.1-2.4.8-1.7.8-1.7 1.2 0 .3 1 .2 2.1-.1 2.4zm-4.6 3.9c0 .8-.4 1.4-1 1.4-.5 0-1-.9-1-2.1 0-1.1.5-1.7 1-1.4.6.3 1 1.3 1 2.1zm9.6 1.1c-1.1 1.1-1.9-.6-1.1-2.4.8-1.7.8-1.7 1.2 0 .3 1 .2 2.1-.1 2.4zM15.7 108c.3 1.1.9 2 1.3 2s1-.9 1.3-2c.5-1.9 1.4-2 14.6-2H47v40H35.6c-10.5 0-11.4-.1-11.9-2-.3-1.1-1-2-1.6-2-.6 0-1.1.9-1.1 2 0 1.6-.7 2-3.4 2-2.5 0-3.5-.5-3.9-2-.3-1.1-1-2-1.6-2-.6 0-1.1.9-1.1 2 0 1.5-.7 2-2.5 2-2 0-2.5-.5-2.5-2.5 0-1.4.5-2.5 1-2.5.6 0 1-.9 1-2s-.4-2-1-2c-.5 0-1-1.4-1-3 0-1.7.5-3 1-3 .6 0 1-.9 1-2s-.4-2-1-2c-.5 0-1-1.4-1-3 0-1.7.5-3 1-3 .6 0 1-.9 1-2s-.4-2-1-2c-.5 0-1-1.6-1-3.5s.4-3.5.9-3.5 1.1-.9 1.4-2c.4-1.5 1.4-2 3.7-2 2.3 0 3.3.5 3.7 2zm92.3 18v20H67v-40h41v20zm30.7-18c.3 1.1.9 2 1.3 2s1-.9 1.3-2c.5-1.9 1.4-2 14.6-2H170v40h-12c-11.3 0-12-.1-12-2 0-1.1-.4-2-1-2-.5 0-1 .9-1 2 0 1.7-.7 2-4 2s-4-.3-4-2c0-1.1-.5-2-1.1-2-.6 0-1.3.9-1.6 2-.3 1.3-1.4 2-2.9 2-1.9 0-2.4-.5-2.4-2.5 0-1.6.6-2.5 1.5-2.5.8 0 1.5-.7 1.5-1.5 0-.9-.7-1.8-1.5-2.1-.9-.4-1.5-1.9-1.5-3.5 0-1.9.5-2.9 1.5-2.9.8 0 1.5-.9 1.5-2s-.7-2-1.5-2c-1 0-1.5-1-1.5-2.9 0-1.6.6-3.1 1.5-3.5.8-.3 1.5-1.2 1.5-2 0-.7-.7-1.6-1.5-2-1.9-.7-2-6.6-.1-6.6.7 0 1.6-.9 1.9-2 .4-1.5 1.4-2 3.7-2 2.3 0 3.3.5 3.7 2zm92.3 18v20h-41v-40h41v20zm30-18c0 1.1.6 2 1.4 2 .7 0 1.6-.9 1.9-2 .5-1.9 1.4-2 14.1-2H292v40h-11.5c-10.8 0-11.5-.1-11.5-2 0-1.1-.5-2-1.1-2-.6 0-1.3.9-1.6 2-.4 1.5-1.4 2-3.9 2-2.7 0-3.4-.4-3.4-2 0-1.1-.7-2-1.5-2s-1.5.9-1.5 2c0 1.5-.7 2-2.5 2-2 0-2.5-.5-2.5-2.5 0-1.6.6-2.5 1.5-2.5.8 0 1.5-.7 1.5-1.5 0-.9-.7-1.8-1.5-2.1-.9-.4-1.5-1.9-1.5-3.5 0-1.9.5-2.9 1.5-2.9.8 0 1.5-.9 1.5-2s-.7-2-1.5-2c-1 0-1.5-1-1.5-2.9 0-1.6.6-3.1 1.5-3.5.8-.3 1.5-1.2 1.5-2.1 0-.8-.7-1.5-1.5-1.5-1 0-1.5-1.1-1.5-3.5s.5-3.5 1.5-3.5c.8 0 1.5-.9 1.5-2 0-1.6.7-2 3.5-2s3.5.4 3.5 2zM88 167v10h20v20H67v-20H47v20H4.9l.3-9.8.3-9.7 10.3-.3 10.2-.3V157h62v10zm143 0v10h-61v20h-42v-40h103v10zm61 10v20h-41v-40h41v20zM47 228v20H5v-19.3c0-10.7.3-19.7.7-20 .3-.4 9.8-.7 21-.7H47v20zm61 0v20H67v-40h41v20zm62 0v20h-42v-40h42v20zm21.6-16.3c-1.1 1.1-1.9-.6-1.1-2.4.8-1.7.8-1.7 1.2 0 .3 1 .2 2.1-.1 2.4zm11.4-1.1c0 .8-.7 1.4-1.5 1.4-1.5 0-2.1-2.1-.9-3.3 1-.9 2.4.2 2.4 1.9zm89 17.4v20h-41v-40h41v20zm62 0v20h-42v-19.3c0-10.7.3-19.7.7-20 .3-.4 9.8-.7 21-.7H354v20zm-157-12.5c0 .8-.4 1.5-1 1.5-.5 0-1-.7-1-1.5s.5-1.5 1-1.5c.6 0 1 .7 1 1.5zm11 0c0 .8-.7 1.5-1.5 1.5s-1.5-.7-1.5-1.5.7-1.5 1.5-1.5 1.5.7 1.5 1.5zm-16 5.6c0 1.1-.4 1.7-1 1.4-.5-.3-1-1.3-1-2.1s.5-1.4 1-1.4c.6 0 1 .9 1 2.1zm10.8-.4c-.4 2.2-2.2 2-2.6-.1-.2-1 .3-1.6 1.3-1.6s1.5.7 1.3 1.7zm-5.8 5.4c0 1.1-.4 1.7-1 1.4-.5-.3-1-1.3-1-2.1s.5-1.4 1-1.4c.6 0 1 .9 1 2.1zm10.8-.4c-.4 2.2-2.2 2-2.6-.1-.2-1 .3-1.6 1.3-1.6s1.5.7 1.3 1.7zM192 231c0 1.1-.4 2-1 2-.5 0-1-.9-1-2s.5-2 1-2c.6 0 1 .9 1 2zm10.8-.3c-.4 2.2-2.2 2-2.6-.1-.2-1 .3-1.6 1.3-1.6s1.5.7 1.3 1.7zM197 236c0 1.1-.4 2-1 2-.5 0-1-.9-1-2s.5-2 1-2c.6 0 1 .9 1 2zm11 .6c0 .8-.7 1.4-1.5 1.4-1.5 0-2.1-2.1-.9-3.3 1-.9 2.4.2 2.4 1.9zm-16.4 6.1c-1.1 1.1-1.9-.6-1.1-2.4.8-1.7.8-1.7 1.2 0 .3 1 .2 2.1-.1 2.4zm11.4-1.1c0 .8-.7 1.4-1.5 1.4-1.5 0-2.1-2.1-.9-3.3 1-.9 2.4.2 2.4 1.9zm-6.4 6.1c-1.1 1.1-1.9-.6-1.1-2.4.8-1.7.8-1.7 1.2 0 .3 1 .2 2.1-.1 2.4zm11.4-1.1c0 .8-.7 1.4-1.5 1.4-1.5 0-2.1-2.1-.9-3.3 1-.9 2.4.2 2.4 1.9zM15.7 261c.3 1.1.9 2 1.3 2s1-.9 1.3-2c.4-1.5 1.4-2 3.7-2 2.3 0 3.3.5 3.7 2 .3 1.1 1.2 2 1.9 2 .8 0 1.4-.9 1.4-2 0-1.6.7-2 3.5-2s3.5.4 3.5 2c0 1.1.6 2 1.4 2 .7 0 1.6-.9 1.9-2 .4-1.5 1.4-2 3.6-2H46v20c0 12.7-.4 20-1 20-.5 0-1-.9-1-2s-.5-2-1.1-2c-.6 0-1.3.9-1.6 2-.8 2.9-7.3 2.9-7.3 0 0-1.1-.7-2-1.5-2s-1.5.9-1.5 2c0 2.9-6.5 2.9-7.3 0-.7-2.6-2.7-2.6-2.7 0 0 2.9-6.5 2.9-7.3 0-.7-2.6-2.7-2.6-2.7 0 0 1.5-.7 2-2.5 2-2 0-2.5-.5-2.5-2.5 0-1.4.5-2.5 1-2.5.6 0 1-.9 1-2s-.4-2-1-2c-.5 0-1-1.4-1-3 0-1.7.5-3 1-3 .6 0 1-.9 1-2s-.4-2-1-2c-.5 0-1-1.4-1-3 0-1.7.5-3 1-3 .6 0 1-.9 1-2s-.4-2-1-2c-.5 0-1-1.6-1-3.5s.4-3.5.9-3.5 1.1-.9 1.4-2c.4-1.5 1.4-2 3.7-2 2.3 0 3.3.5 3.7 2zm92.3 18v20H67v-40h41v20zm30.7-18c.3 1.1.9 2 1.3 2s1-.9 1.3-2c.4-1.5 1.4-2 3.7-2 2.3 0 3.3.5 3.7 2 .3 1.1.9 2 1.3 2s1-.9 1.3-2c.4-1.5 1.4-2 3.7-2 2.3 0 3.3.5 3.7 2 .7 2.6 3.3 2.6 3.3-.1 0-1.7.5-2 3.3-1.7l3.2.3.3 19.7c.1 13-.1 19.8-.8 19.8-.5 0-1-.6-1-1.4 0-2.4-2.1-3-2.7-.7-.8 2.9-6.8 3-7.6.1-.7-2.6-2.7-2.6-2.7 0 0 1.7-.7 2-4 2s-4-.3-4-2c0-1.1-.4-2-1-2-.5 0-1 .9-1 2 0 1.7-.7 2-4 2s-4-.3-4-2c0-1.1-.5-2-1.1-2-.6 0-1.3.9-1.6 2-.3 1.3-1.4 2-2.9 2-1.9 0-2.4-.5-2.4-2.5 0-1.6.6-2.5 1.5-2.5.8 0 1.5-.7 1.5-1.5 0-.9-.7-1.8-1.5-2.1-.9-.4-1.5-1.9-1.5-3.5 0-1.9.5-2.9 1.5-2.9.8 0 1.5-.9 1.5-2s-.7-2-1.5-2c-1 0-1.5-1-1.5-2.9 0-1.6.6-3.1 1.5-3.5.8-.3 1.5-1.2 1.5-2 0-.7-.7-1.6-1.5-2-1.9-.7-2-6.6-.1-6.6.7 0 1.6-.9 1.9-2 .4-1.5 1.4-2 3.7-2 2.3 0 3.3.5 3.7 2zm122.3 0c0 1.1.6 2 1.4 2 .7 0 1.6-.9 1.9-2 .4-1.5 1.4-2 3.6-2 2.4 0 3.1.4 3.1 2 0 1.1.6 2 1.4 2 .7 0 1.6-.9 1.9-2 .4-1.5 1.4-2 3.7-2 2.3 0 3.3.5 3.7 2 .7 2.6 1.9 2.6 2.6-.1.4-1.6 1.2-2 3.9-1.7l3.3.3.3 9.7.3 9.8h19.8l.3-9.8.3-9.7 20.8-.3 20.7-.2v40h-31.9c-31 0-31.9-.1-32.4-2-.7-2.6-2.7-2.6-2.7 0 0 1.6-.7 2-3.4 2-2.5 0-3.5-.5-3.9-2-.3-1.1-1-2-1.6-2-.6 0-1.1.9-1.1 2 0 1.7-.7 2-4 2s-4-.3-4-2c0-2.6-2-2.6-2.7 0-.8 2.9-7.3 2.9-7.3 0 0-1.1-.7-2-1.5-2s-1.5.9-1.5 2c0 1.5-.7 2-2.5 2-2 0-2.5-.5-2.5-2.5 0-1.6.6-2.5 1.5-2.5.8 0 1.5-.7 1.5-1.5 0-.9-.7-1.8-1.5-2.1-.9-.4-1.5-1.9-1.5-3.5 0-1.9.5-2.9 1.5-2.9.8 0 1.5-.9 1.5-2s-.7-2-1.5-2c-1 0-1.5-1-1.5-2.9 0-1.6.6-3.1 1.5-3.5.8-.3 1.5-1.2 1.5-2.1 0-.8-.7-1.5-1.5-1.5-1 0-1.5-1.1-1.5-3.5s.5-3.5 1.5-3.5c.8 0 1.5-.9 1.5-2 0-1.6.7-2 3.5-2s3.5.4 3.5 2z"/><path d="M11 112.9c0 1.2.6 2.1 1.6 2.1.9 0 1.4-.7 1.2-1.7-.5-2.5-2.8-2.8-2.8-.4zM21 112.9c0 1.2.6 2.1 1.6 2.1.9 0 1.4-.7 1.2-1.7-.5-2.5-2.8-2.8-2.8-.4zM16 119c0 1.1.5 2 1 2 .6 0 1-.9 1-2s-.4-2-1-2c-.5 0-1 .9-1 2zM11 124.1c0 2.4 2.3 2.1 2.8-.4.2-1-.3-1.7-1.2-1.7-1 0-1.6.9-1.6 2.1zM21 124.1c0 2.4 2.3 2.1 2.8-.4.2-1-.3-1.7-1.2-1.7-1 0-1.6.9-1.6 2.1zM16 129c0 1.1.5 2 1 2 .6 0 1-.9 1-2s-.4-2-1-2c-.5 0-1 .9-1 2zM11 133.9c0 1.2.6 2.1 1.6 2.1.9 0 1.4-.7 1.2-1.7-.5-2.5-2.8-2.8-2.8-.4zM21 133.9c0 1.2.6 2.1 1.6 2.1.9 0 1.4-.7 1.2-1.7-.5-2.5-2.8-2.8-2.8-.4zM16 139c0 1.1.5 2 1 2 .6 0 1-.9 1-2s-.4-2-1-2c-.5 0-1 .9-1 2zM133.7 111.7c-1.3 1.2-.7 3.3.8 3.3.8 0 1.5-.9 1.5-2 0-2-1.1-2.6-2.3-1.3zM144 113c0 1.1.5 2 1 2 .6 0 1-.9 1-2s-.4-2-1-2c-.5 0-1 .9-1 2zM139 119c0 1.1.5 2 1 2 .6 0 1-.9 1-2s-.4-2-1-2c-.5 0-1 .9-1 2zM133.2 123.7c.5 2.5 2.8 2.8 2.8.4 0-1.2-.6-2.1-1.6-2.1-.9 0-1.4.7-1.2 1.7zM144 124c0 1.1.5 2 1 2 .6 0 1-.9 1-2s-.4-2-1-2c-.5 0-1 .9-1 2zM139 129c0 1.1.5 2 1 2 .6 0 1-.9 1-2s-.4-2-1-2c-.5 0-1 .9-1 2zM133.7 132.7c-1.3 1.2-.7 3.3.8 3.3.8 0 1.5-.9 1.5-2 0-2-1.1-2.6-2.3-1.3zM144 134c0 1.1.5 2 1 2 .6 0 1-.9 1-2s-.4-2-1-2c-.5 0-1 .9-1 2zM139 139c0 1.1.5 2 1 2 .6 0 1-.9 1-2s-.4-2-1-2c-.5 0-1 .9-1 2zM256.7 111.7c-1.3 1.2-.7 3.3.8 3.3.8 0 1.5-.9 1.5-2 0-2-1.1-2.6-2.3-1.3zM266.7 111.7c-1.3 1.2-.7 3.3.8 3.3.8 0 1.5-.9 1.5-2 0-2-1.1-2.6-2.3-1.3zM261.2 118.6c.4 2.1 2.2 2.3 2.6.1.2-1-.3-1.7-1.3-1.7s-1.5.6-1.3 1.6zM256 124c0 1.1.7 2 1.5 2s1.5-.9 1.5-2-.7-2-1.5-2-1.5.9-1.5 2zM266.2 123.7c.5 2.5 2.8 2.8 2.8.4 0-1.2-.6-2.1-1.6-2.1-.9 0-1.4.7-1.2 1.7zM261 129c0 1.1.7 2 1.5 2s1.5-.9 1.5-2-.7-2-1.5-2-1.5.9-1.5 2zM256 134c0 1.1.7 2 1.5 2s1.5-.9 1.5-2-.7-2-1.5-2-1.5.9-1.5 2zM266.7 132.7c-1.3 1.2-.7 3.3.8 3.3.8 0 1.5-.9 1.5-2 0-2-1.1-2.6-2.3-1.3zM261.6 137.7c-1.2 1.2-.6 3.3.9 3.3.8 0 1.5-.6 1.5-1.4 0-1.7-1.4-2.8-2.4-1.9zM11 265.9c0 1.2.6 2.1 1.6 2.1.9 0 1.4-.7 1.2-1.7-.5-2.5-2.8-2.8-2.8-.4zM21 265.9c0 1.2.6 2.1 1.6 2.1.9 0 1.4-.7 1.2-1.7-.5-2.5-2.8-2.8-2.8-.4zM31.7 264.7c-1.3 1.2-.7 3.3.8 3.3.8 0 1.5-.9 1.5-2 0-2-1.1-2.6-2.3-1.3zM41.7 264.7c-1.3 1.2-.7 3.3.8 3.3.8 0 1.5-.9 1.5-2 0-2-1.1-2.6-2.3-1.3zM16 272c0 1.1.5 2 1 2 .6 0 1-.9 1-2s-.4-2-1-2c-.5 0-1 .9-1 2zM26 272.1c0 2.4 2.3 2.1 2.8-.4.2-1-.3-1.7-1.2-1.7-1 0-1.6.9-1.6 2.1zM36.2 271.6c.4 2.1 2.2 2.3 2.6.1.2-1-.3-1.7-1.3-1.7s-1.5.6-1.3 1.6zM11 277.1c0 2.4 2.3 2.1 2.8-.4.2-1-.3-1.7-1.2-1.7-1 0-1.6.9-1.6 2.1zM21 277.1c0 2.4 2.3 2.1 2.8-.4.2-1-.3-1.7-1.2-1.7-1 0-1.6.9-1.6 2.1zM31 277c0 1.1.7 2 1.5 2s1.5-.9 1.5-2-.7-2-1.5-2-1.5.9-1.5 2zM41.2 276.7c.5 2.5 2.8 2.8 2.8.4 0-1.2-.6-2.1-1.6-2.1-.9 0-1.4.7-1.2 1.7zM16 282c0 1.1.5 2 1 2 .6 0 1-.9 1-2s-.4-2-1-2c-.5 0-1 .9-1 2zM26 282c0 1.1.7 2 1.5 2s1.5-.9 1.5-2-.7-2-1.5-2-1.5.9-1.5 2zM36 282c0 1.1.7 2 1.5 2s1.5-.9 1.5-2-.7-2-1.5-2-1.5.9-1.5 2zM11 286.9c0 1.2.6 2.1 1.6 2.1.9 0 1.4-.7 1.2-1.7-.5-2.5-2.8-2.8-2.8-.4zM21 286.9c0 1.2.6 2.1 1.6 2.1.9 0 1.4-.7 1.2-1.7-.5-2.5-2.8-2.8-2.8-.4zM31 287c0 1.1.7 2 1.5 2s1.5-.9 1.5-2-.7-2-1.5-2-1.5.9-1.5 2zM41.7 285.7c-1.3 1.2-.7 3.3.8 3.3.8 0 1.5-.9 1.5-2 0-2-1.1-2.6-2.3-1.3zM16 292c0 1.1.5 2 1 2 .6 0 1-.9 1-2s-.4-2-1-2c-.5 0-1 .9-1 2zM26 291.9c0 1.2.6 2.1 1.6 2.1.9 0 1.4-.7 1.2-1.7-.5-2.5-2.8-2.8-2.8-.4zM36.6 290.7c-1.2 1.2-.6 3.3.9 3.3.8 0 1.5-.6 1.5-1.4 0-1.7-1.4-2.8-2.4-1.9zM133.7 264.7c-1.3 1.2-.7 3.3.8 3.3.8 0 1.5-.9 1.5-2 0-2-1.1-2.6-2.3-1.3zM144 266c0 1.1.5 2 1 2 .6 0 1-.9 1-2s-.4-2-1-2c-.5 0-1 .9-1 2zM154 265.9c0 1.2.6 2.1 1.6 2.1.9 0 1.4-.7 1.2-1.7-.5-2.5-2.8-2.8-2.8-.4zM164.6 264.7c-1.2 1.2-.6 3.3.9 3.3.8 0 1.5-.6 1.5-1.4 0-1.7-1.4-2.8-2.4-1.9zM139 272c0 1.1.5 2 1 2 .6 0 1-.9 1-2s-.4-2-1-2c-.5 0-1 .9-1 2zM149 272c0 1.1.5 2 1 2 .6 0 1-.9 1-2s-.4-2-1-2c-.5 0-1 .9-1 2zM159.2 271.6c.4 2.1 2.2 2.3 2.6.1.2-1-.3-1.7-1.3-1.7s-1.5.6-1.3 1.6zM133.2 276.7c.5 2.5 2.8 2.8 2.8.4 0-1.2-.6-2.1-1.6-2.1-.9 0-1.4.7-1.2 1.7zM144 277c0 1.1.5 2 1 2 .6 0 1-.9 1-2s-.4-2-1-2c-.5 0-1 .9-1 2zM154 277c0 1.1.7 2 1.5 2s1.5-.9 1.5-2-.7-2-1.5-2-1.5.9-1.5 2zM164.2 276.7c.5 2.5 2.8 2.8 2.8.4 0-1.2-.6-2.1-1.6-2.1-.9 0-1.4.7-1.2 1.7zM139 282c0 1.1.5 2 1 2 .6 0 1-.9 1-2s-.4-2-1-2c-.5 0-1 .9-1 2zM149 282c0 1.1.5 2 1 2 .6 0 1-.9 1-2s-.4-2-1-2c-.5 0-1 .9-1 2zM159 282c0 1.1.7 2 1.5 2s1.5-.9 1.5-2-.7-2-1.5-2-1.5.9-1.5 2zM133.7 285.7c-1.3 1.2-.7 3.3.8 3.3.8 0 1.5-.9 1.5-2 0-2-1.1-2.6-2.3-1.3zM144 287c0 1.1.5 2 1 2 .6 0 1-.9 1-2s-.4-2-1-2c-.5 0-1 .9-1 2zM154 287c0 1.1.7 2 1.5 2s1.5-.9 1.5-2-.7-2-1.5-2-1.5.9-1.5 2zM164.7 285.7c-1.3 1.2-.7 3.3.8 3.3.8 0 1.5-.9 1.5-2 0-2-1.1-2.6-2.3-1.3zM139 292c0 1.1.5 2 1 2 .6 0 1-.9 1-2s-.4-2-1-2c-.5 0-1 .9-1 2zM149 292c0 1.1.5 2 1 2 .6 0 1-.9 1-2s-.4-2-1-2c-.5 0-1 .9-1 2zM159.6 290.7c-1.2 1.2-.6 3.3.9 3.3.8 0 1.5-.6 1.5-1.4 0-1.7-1.4-2.8-2.4-1.9zM256.7 264.7c-1.3 1.2-.7 3.3.8 3.3.8 0 1.5-.9 1.5-2 0-2-1.1-2.6-2.3-1.3zM266.7 264.7c-1.3 1.2-.7 3.3.8 3.3.8 0 1.5-.9 1.5-2 0-2-1.1-2.6-2.3-1.3zM277 265.9c0 1.2.6 2.1 1.6 2.1.9 0 1.4-.7 1.2-1.7-.5-2.5-2.8-2.8-2.8-.4zM287 265.9c0 1.2.6 2.1 1.6 2.1.9 0 1.4-.7 1.2-1.7-.5-2.5-2.8-2.8-2.8-.4zM261.2 271.6c.4 2.1 2.2 2.3 2.6.1.2-1-.3-1.7-1.3-1.7s-1.5.6-1.3 1.6zM271.2 271.7c.5 2.5 2.8 2.8 2.8.4 0-1.2-.6-2.1-1.6-2.1-.9 0-1.4.7-1.2 1.7zM282 272c0 1.1.5 2 1 2 .6 0 1-.9 1-2s-.4-2-1-2c-.5 0-1 .9-1 2zM256 277c0 1.1.7 2 1.5 2s1.5-.9 1.5-2-.7-2-1.5-2-1.5.9-1.5 2zM266.2 276.7c.5 2.5 2.8 2.8 2.8.4 0-1.2-.6-2.1-1.6-2.1-.9 0-1.4.7-1.2 1.7zM277 277.1c0 2.4 2.3 2.1 2.8-.4.2-1-.3-1.7-1.2-1.7-1 0-1.6.9-1.6 2.1zM287 277.1c0 2.4 2.3 2.1 2.8-.4.2-1-.3-1.7-1.2-1.7-1 0-1.6.9-1.6 2.1zM261 282c0 1.1.7 2 1.5 2s1.5-.9 1.5-2-.7-2-1.5-2-1.5.9-1.5 2zM271 282c0 1.1.7 2 1.5 2s1.5-.9 1.5-2-.7-2-1.5-2-1.5.9-1.5 2zM282 282c0 1.1.5 2 1 2 .6 0 1-.9 1-2s-.4-2-1-2c-.5 0-1 .9-1 2zM256 287c0 1.1.7 2 1.5 2s1.5-.9 1.5-2-.7-2-1.5-2-1.5.9-1.5 2zM266.7 285.7c-1.3 1.2-.7 3.3.8 3.3.8 0 1.5-.9 1.5-2 0-2-1.1-2.6-2.3-1.3zM277 286.9c0 1.2.6 2.1 1.6 2.1.9 0 1.4-.7 1.2-1.7-.5-2.5-2.8-2.8-2.8-.4zM287 286.9c0 1.2.6 2.1 1.6 2.1.9 0 1.4-.7 1.2-1.7-.5-2.5-2.8-2.8-2.8-.4zM261.6 290.7c-1.2 1.2-.6 3.3.9 3.3.8 0 1.5-.6 1.5-1.4 0-1.7-1.4-2.8-2.4-1.9zM271.7 290.7c-1.3 1.2-.7 3.3.8 3.3.8 0 1.5-.9 1.5-2 0-2-1.1-2.6-2.3-1.3zM282 292c0 1.1.5 2 1 2 .6 0 1-.9 1-2s-.4-2-1-2c-.5 0-1 .9-1 2z"/></svg>